<svg width="435" height="377" viewBox="0 0 435 377" fill="none" xmlns="http://www.w3.org/2000/svg">
<g filter="url(#filter0_d_670_2430)">
<rect x="2.35" y="0.35" width="426.3" height="368.3" rx="11.65" stroke="#D09A97" stroke-width="0.7" shape-rendering="crispEdges"/>
<path d="M53 39.5L47 33.5L53 27.5" stroke="#686868" stroke-width="2" stroke-linecap="round" stroke-linejoin="round"/>
<path d="M171.604 44.9746C171.245 44.9746 170.933 44.9518 170.666 44.9062C170.393 44.8672 170.158 44.8118 169.963 44.7402V42.7773C170.171 42.8294 170.396 42.875 170.637 42.9141C170.878 42.9531 171.135 42.9727 171.408 42.9727C171.766 42.9727 172.092 42.9043 172.385 42.7676C172.678 42.6309 172.909 42.3835 173.078 42.0254C173.254 41.6673 173.342 41.1628 173.342 40.5117V26.7227H175.686V40.4336C175.686 41.4948 175.516 42.3574 175.178 43.0215C174.839 43.6921 174.364 44.1836 173.752 44.4961C173.14 44.8151 172.424 44.9746 171.604 44.9746ZM188.566 30.1895V41H186.76L186.447 39.5449H186.32C186.092 39.916 185.803 40.2253 185.451 40.4727C185.1 40.7135 184.709 40.8926 184.279 41.0098C183.85 41.1335 183.397 41.1953 182.922 41.1953C182.108 41.1953 181.411 41.0586 180.832 40.7852C180.259 40.5052 179.82 40.0755 179.514 39.4961C179.208 38.9167 179.055 38.168 179.055 37.25V30.1895H181.359V36.8203C181.359 37.6602 181.529 38.2884 181.867 38.7051C182.212 39.1217 182.746 39.3301 183.469 39.3301C184.165 39.3301 184.719 39.1868 185.129 38.9004C185.539 38.6139 185.829 38.1908 185.998 37.6309C186.174 37.071 186.262 36.3841 186.262 35.5703V30.1895H188.566ZM194.152 30.1895V41H191.857V30.1895H194.152ZM193.02 26.0488C193.371 26.0488 193.674 26.1432 193.928 26.332C194.188 26.5208 194.318 26.8464 194.318 27.3086C194.318 27.7643 194.188 28.0898 193.928 28.2852C193.674 28.474 193.371 28.5684 193.02 28.5684C192.655 28.5684 192.346 28.474 192.092 28.2852C191.844 28.0898 191.721 27.7643 191.721 27.3086C191.721 26.8464 191.844 26.5208 192.092 26.332C192.346 26.1432 192.655 26.0488 193.02 26.0488ZM203.078 29.9844C204.296 29.9844 205.243 30.3001 205.92 30.9316C206.604 31.5566 206.945 32.5625 206.945 33.9492V41H204.65V34.3789C204.65 33.5391 204.478 32.9108 204.133 32.4941C203.788 32.071 203.254 31.8594 202.531 31.8594C201.483 31.8594 200.754 32.1816 200.344 32.8262C199.94 33.4707 199.738 34.4049 199.738 35.6289V41H197.443V30.1895H199.23L199.553 31.6543H199.68C199.914 31.2767 200.204 30.9674 200.549 30.7266C200.9 30.4792 201.291 30.2936 201.721 30.1699C202.157 30.0462 202.609 29.9844 203.078 29.9844ZM224.279 41H214.611V39.2715L218.312 35.5215C219.029 34.7923 219.618 34.1641 220.08 33.6367C220.542 33.1029 220.884 32.5983 221.105 32.123C221.333 31.6478 221.447 31.1302 221.447 30.5703C221.447 29.8802 221.249 29.3594 220.852 29.0078C220.454 28.6497 219.93 28.4707 219.279 28.4707C218.661 28.4707 218.088 28.5944 217.561 28.8418C217.04 29.0827 216.499 29.4277 215.939 29.877L214.68 28.3633C215.077 28.0247 215.5 27.7155 215.949 27.4355C216.405 27.1556 216.913 26.9342 217.473 26.7715C218.033 26.6022 218.671 26.5176 219.387 26.5176C220.292 26.5176 221.073 26.6803 221.73 27.0059C222.388 27.3249 222.893 27.7708 223.244 28.3438C223.602 28.9167 223.781 29.584 223.781 30.3457C223.781 31.1139 223.628 31.8236 223.322 32.4746C223.016 33.1257 222.58 33.7702 222.014 34.4082C221.447 35.0397 220.773 35.7266 219.992 36.4688L217.521 38.8809V38.9883H224.279V41ZM235.725 33.8516C235.725 35.0039 235.633 36.0358 235.451 36.9473C235.275 37.8522 234.995 38.6204 234.611 39.252C234.227 39.8835 233.726 40.3652 233.107 40.6973C232.489 41.0293 231.74 41.1953 230.861 41.1953C229.761 41.1953 228.853 40.9056 228.137 40.3262C227.421 39.7402 226.89 38.9004 226.545 37.8066C226.2 36.7064 226.027 35.388 226.027 33.8516C226.027 32.3151 226.184 31 226.496 29.9062C226.815 28.806 227.329 27.9629 228.039 27.377C228.749 26.791 229.689 26.498 230.861 26.498C231.968 26.498 232.88 26.791 233.596 27.377C234.318 27.9564 234.852 28.7962 235.197 29.8965C235.549 30.9902 235.725 32.3086 235.725 33.8516ZM228.342 33.8516C228.342 35.056 228.42 36.0618 228.576 36.8691C228.739 37.6764 229.006 38.2819 229.377 38.6855C229.748 39.0827 230.243 39.2812 230.861 39.2812C231.48 39.2812 231.975 39.0827 232.346 38.6855C232.717 38.2884 232.984 37.6862 233.146 36.8789C233.316 36.0716 233.4 35.0625 233.4 33.8516C233.4 32.6536 233.319 31.651 233.156 30.8438C232.993 30.0365 232.727 29.431 232.355 29.0273C231.984 28.6172 231.486 28.4121 230.861 28.4121C230.236 28.4121 229.738 28.6172 229.367 29.0273C229.003 29.431 228.739 30.0365 228.576 30.8438C228.42 31.651 228.342 32.6536 228.342 33.8516ZM247.17 41H237.502V39.2715L241.203 35.5215C241.919 34.7923 242.508 34.1641 242.971 33.6367C243.433 33.1029 243.775 32.5983 243.996 32.123C244.224 31.6478 244.338 31.1302 244.338 30.5703C244.338 29.8802 244.139 29.3594 243.742 29.0078C243.345 28.6497 242.821 28.4707 242.17 28.4707C241.551 28.4707 240.979 28.5944 240.451 28.8418C239.93 29.0827 239.39 29.4277 238.83 29.877L237.57 28.3633C237.967 28.0247 238.391 27.7155 238.84 27.4355C239.296 27.1556 239.803 26.9342 240.363 26.7715C240.923 26.6022 241.561 26.5176 242.277 26.5176C243.182 26.5176 243.964 26.6803 244.621 27.0059C245.279 27.3249 245.783 27.7708 246.135 28.3438C246.493 28.9167 246.672 29.584 246.672 30.3457C246.672 31.1139 246.519 31.8236 246.213 32.4746C245.907 33.1257 245.471 33.7702 244.904 34.4082C244.338 35.0397 243.664 35.7266 242.883 36.4688L240.412 38.8809V38.9883H247.17V41ZM259.133 37.8652H257.199V41H254.934V37.8652H248.439V36.127L254.963 26.6836H257.199V35.9609H259.133V37.8652ZM254.934 35.9609V32.416C254.934 32.123 254.937 31.8268 254.943 31.5273C254.956 31.2214 254.969 30.9284 254.982 30.6484C254.995 30.3685 255.008 30.1113 255.021 29.877C255.035 29.6361 255.044 29.4375 255.051 29.2812H254.973C254.849 29.5417 254.712 29.8086 254.562 30.082C254.413 30.349 254.253 30.6094 254.084 30.8633L250.568 35.9609H254.934Z" fill="#828282"/>
<path d="M378 39.5L384 33.5L378 27.5" stroke="#686868" stroke-width="2" stroke-linecap="round" stroke-linejoin="round"/>
<line x1="38.5" y1="70.5" x2="392.5" y2="70.5" stroke="#BDBDBD" stroke-linecap="round"/>
<path d="M54.7226 95.692C54.7226 96.336 54.6186 96.922 54.4106 97.45C54.2066 97.978 53.9166 98.432 53.5406 98.812C53.1646 99.188 52.7146 99.48 52.1906 99.688C51.6666 99.896 51.0846 100 50.4446 100H47.2046V91.384H50.4446C51.0846 91.384 51.6666 91.488 52.1906 91.696C52.7146 91.904 53.1646 92.198 53.5406 92.578C53.9166 92.954 54.2066 93.408 54.4106 93.94C54.6186 94.468 54.7226 95.052 54.7226 95.692ZM53.4146 95.692C53.4146 95.18 53.3446 94.722 53.2046 94.318C53.0646 93.91 52.8646 93.566 52.6046 93.286C52.3486 93.002 52.0366 92.786 51.6686 92.638C51.3046 92.49 50.8966 92.416 50.4446 92.416H48.4886V98.968H50.4446C50.8966 98.968 51.3046 98.894 51.6686 98.746C52.0366 98.598 52.3486 98.384 52.6046 98.104C52.8646 97.82 53.0646 97.476 53.2046 97.072C53.3446 96.668 53.4146 96.208 53.4146 95.692ZM61.0371 96.79L59.7591 93.448C59.6671 93.22 59.5751 92.932 59.4831 92.584C59.4391 92.756 59.3931 92.916 59.3451 93.064C59.3011 93.212 59.2571 93.344 59.2131 93.46L57.9411 96.79H61.0371ZM63.5631 100H62.5791C62.4671 100 62.3751 99.972 62.3031 99.916C62.2311 99.86 62.1791 99.788 62.1471 99.7L61.3851 97.702H57.5871L56.8251 99.7C56.7971 99.776 56.7451 99.846 56.6691 99.91C56.5931 99.97 56.5011 100 56.3931 100H55.4091L58.8411 91.384H60.1311L63.5631 100ZM67.4973 96.592V100H66.2253V96.592L63.0693 91.384H64.1913C64.3033 91.384 64.3933 91.412 64.4613 91.468C64.5293 91.52 64.5853 91.59 64.6293 91.678L66.5013 94.9C66.5773 95.048 66.6453 95.188 66.7053 95.32C66.7693 95.452 66.8253 95.582 66.8733 95.71C66.9173 95.582 66.9673 95.452 67.0233 95.32C67.0833 95.188 67.1513 95.048 67.2273 94.9L69.0933 91.678C69.1333 91.606 69.1873 91.54 69.2553 91.48C69.3273 91.416 69.4173 91.384 69.5253 91.384H70.6533L67.4973 96.592Z" fill="#686868"/>
<path d="M107.009 95.692C107.009 96.336 106.905 96.922 106.697 97.45C106.493 97.978 106.203 98.432 105.827 98.812C105.451 99.188 105.001 99.48 104.477 99.688C103.953 99.896 103.371 100 102.731 100H99.4907V91.384H102.731C103.371 91.384 103.953 91.488 104.477 91.696C105.001 91.904 105.451 92.198 105.827 92.578C106.203 92.954 106.493 93.408 106.697 93.94C106.905 94.468 107.009 95.052 107.009 95.692ZM105.701 95.692C105.701 95.18 105.631 94.722 105.491 94.318C105.351 93.91 105.151 93.566 104.891 93.286C104.635 93.002 104.323 92.786 103.955 92.638C103.591 92.49 103.183 92.416 102.731 92.416H100.775V98.968H102.731C103.183 98.968 103.591 98.894 103.955 98.746C104.323 98.598 104.635 98.384 104.891 98.104C105.151 97.82 105.351 97.476 105.491 97.072C105.631 96.668 105.701 96.208 105.701 95.692ZM113.323 96.79L112.045 93.448C111.953 93.22 111.861 92.932 111.769 92.584C111.725 92.756 111.679 92.916 111.631 93.064C111.587 93.212 111.543 93.344 111.499 93.46L110.227 96.79H113.323ZM115.849 100H114.865C114.753 100 114.661 99.972 114.589 99.916C114.517 99.86 114.465 99.788 114.433 99.7L113.671 97.702H109.873L109.111 99.7C109.083 99.776 109.031 99.846 108.955 99.91C108.879 99.97 108.787 100 108.679 100H107.695L111.127 91.384H112.417L115.849 100ZM119.783 96.592V100H118.511V96.592L115.355 91.384H116.477C116.589 91.384 116.679 91.412 116.747 91.468C116.815 91.52 116.871 91.59 116.915 91.678L118.787 94.9C118.863 95.048 118.931 95.188 118.991 95.32C119.055 95.452 119.111 95.582 119.159 95.71C119.203 95.582 119.253 95.452 119.309 95.32C119.369 95.188 119.437 95.048 119.513 94.9L121.379 91.678C121.419 91.606 121.473 91.54 121.541 91.48C121.613 91.416 121.703 91.384 121.811 91.384H122.939L119.783 96.592Z" fill="#686868"/>
<path d="M159.294 95.692C159.294 96.336 159.19 96.922 158.982 97.45C158.778 97.978 158.488 98.432 158.112 98.812C157.736 99.188 157.286 99.48 156.762 99.688C156.238 99.896 155.656 100 155.016 100H151.776V91.384H155.016C155.656 91.384 156.238 91.488 156.762 91.696C157.286 91.904 157.736 92.198 158.112 92.578C158.488 92.954 158.778 93.408 158.982 93.94C159.19 94.468 159.294 95.052 159.294 95.692ZM157.986 95.692C157.986 95.18 157.916 94.722 157.776 94.318C157.636 93.91 157.436 93.566 157.176 93.286C156.92 93.002 156.608 92.786 156.24 92.638C155.876 92.49 155.468 92.416 155.016 92.416H153.06V98.968H155.016C155.468 98.968 155.876 98.894 156.24 98.746C156.608 98.598 156.92 98.384 157.176 98.104C157.436 97.82 157.636 97.476 157.776 97.072C157.916 96.668 157.986 96.208 157.986 95.692ZM165.608 96.79L164.33 93.448C164.238 93.22 164.146 92.932 164.054 92.584C164.01 92.756 163.964 92.916 163.916 93.064C163.872 93.212 163.828 93.344 163.784 93.46L162.512 96.79H165.608ZM168.134 100H167.15C167.038 100 166.946 99.972 166.874 99.916C166.802 99.86 166.75 99.788 166.718 99.7L165.956 97.702H162.158L161.396 99.7C161.368 99.776 161.316 99.846 161.24 99.91C161.164 99.97 161.072 100 160.964 100H159.98L163.412 91.384H164.702L168.134 100ZM172.069 96.592V100H170.797V96.592L167.641 91.384H168.763C168.875 91.384 168.965 91.412 169.033 91.468C169.101 91.52 169.157 91.59 169.201 91.678L171.073 94.9C171.149 95.048 171.217 95.188 171.277 95.32C171.341 95.452 171.397 95.582 171.445 95.71C171.489 95.582 171.539 95.452 171.595 95.32C171.655 95.188 171.723 95.048 171.799 94.9L173.665 91.678C173.705 91.606 173.759 91.54 173.827 91.48C173.899 91.416 173.989 91.384 174.097 91.384H175.225L172.069 96.592Z" fill="#686868"/>
<path d="M211.58 95.692C211.58 96.336 211.476 96.922 211.268 97.45C211.064 97.978 210.774 98.432 210.398 98.812C210.022 99.188 209.572 99.48 209.048 99.688C208.524 99.896 207.942 100 207.302 100H204.062V91.384H207.302C207.942 91.384 208.524 91.488 209.048 91.696C209.572 91.904 210.022 92.198 210.398 92.578C210.774 92.954 211.064 93.408 211.268 93.94C211.476 94.468 211.58 95.052 211.58 95.692ZM210.272 95.692C210.272 95.18 210.202 94.722 210.062 94.318C209.922 93.91 209.722 93.566 209.462 93.286C209.206 93.002 208.894 92.786 208.526 92.638C208.162 92.49 207.754 92.416 207.302 92.416H205.346V98.968H207.302C207.754 98.968 208.162 98.894 208.526 98.746C208.894 98.598 209.206 98.384 209.462 98.104C209.722 97.82 209.922 97.476 210.062 97.072C210.202 96.668 210.272 96.208 210.272 95.692ZM217.895 96.79L216.617 93.448C216.525 93.22 216.433 92.932 216.341 92.584C216.297 92.756 216.251 92.916 216.203 93.064C216.159 93.212 216.115 93.344 216.071 93.46L214.799 96.79H217.895ZM220.421 100H219.437C219.325 100 219.233 99.972 219.161 99.916C219.089 99.86 219.037 99.788 219.005 99.7L218.243 97.702H214.445L213.683 99.7C213.655 99.776 213.603 99.846 213.527 99.91C213.451 99.97 213.359 100 213.251 100H212.267L215.699 91.384H216.989L220.421 100ZM224.355 96.592V100H223.083V96.592L219.927 91.384H221.049C221.161 91.384 221.251 91.412 221.319 91.468C221.387 91.52 221.443 91.59 221.487 91.678L223.359 94.9C223.435 95.048 223.503 95.188 223.563 95.32C223.627 95.452 223.683 95.582 223.731 95.71C223.775 95.582 223.825 95.452 223.881 95.32C223.941 95.188 224.009 95.048 224.085 94.9L225.951 91.678C225.991 91.606 226.045 91.54 226.113 91.48C226.185 91.416 226.275 91.384 226.383 91.384H227.511L224.355 96.592Z" fill="#686868"/>
<path d="M263.865 95.692C263.865 96.336 263.761 96.922 263.553 97.45C263.349 97.978 263.059 98.432 262.683 98.812C262.307 99.188 261.857 99.48 261.333 99.688C260.809 99.896 260.227 100 259.587 100H256.347V91.384H259.587C260.227 91.384 260.809 91.488 261.333 91.696C261.857 91.904 262.307 92.198 262.683 92.578C263.059 92.954 263.349 93.408 263.553 93.94C263.761 94.468 263.865 95.052 263.865 95.692ZM262.557 95.692C262.557 95.18 262.487 94.722 262.347 94.318C262.207 93.91 262.007 93.566 261.747 93.286C261.491 93.002 261.179 92.786 260.811 92.638C260.447 92.49 260.039 92.416 259.587 92.416H257.631V98.968H259.587C260.039 98.968 260.447 98.894 260.811 98.746C261.179 98.598 261.491 98.384 261.747 98.104C262.007 97.82 262.207 97.476 262.347 97.072C262.487 96.668 262.557 96.208 262.557 95.692ZM270.18 96.79L268.902 93.448C268.81 93.22 268.718 92.932 268.626 92.584C268.582 92.756 268.536 92.916 268.488 93.064C268.444 93.212 268.4 93.344 268.356 93.46L267.084 96.79H270.18ZM272.706 100H271.722C271.61 100 271.518 99.972 271.446 99.916C271.374 99.86 271.322 99.788 271.29 99.7L270.528 97.702H266.73L265.968 99.7C265.94 99.776 265.888 99.846 265.812 99.91C265.736 99.97 265.644 100 265.536 100H264.552L267.984 91.384H269.274L272.706 100ZM276.64 96.592V100H275.368V96.592L272.212 91.384H273.334C273.446 91.384 273.536 91.412 273.604 91.468C273.672 91.52 273.728 91.59 273.772 91.678L275.644 94.9C275.72 95.048 275.788 95.188 275.848 95.32C275.912 95.452 275.968 95.582 276.016 95.71C276.06 95.582 276.11 95.452 276.166 95.32C276.226 95.188 276.294 95.048 276.37 94.9L278.236 91.678C278.276 91.606 278.33 91.54 278.398 91.48C278.47 91.416 278.56 91.384 278.668 91.384H279.796L276.64 96.592Z" fill="#686868"/>
<path d="M316.151 95.692C316.151 96.336 316.047 96.922 315.839 97.45C315.635 97.978 315.345 98.432 314.969 98.812C314.593 99.188 314.143 99.48 313.619 99.688C313.095 99.896 312.513 100 311.873 100H308.633V91.384H311.873C312.513 91.384 313.095 91.488 313.619 91.696C314.143 91.904 314.593 92.198 314.969 92.578C315.345 92.954 315.635 93.408 315.839 93.94C316.047 94.468 316.151 95.052 316.151 95.692ZM314.843 95.692C314.843 95.18 314.773 94.722 314.633 94.318C314.493 93.91 314.293 93.566 314.033 93.286C313.777 93.002 313.465 92.786 313.097 92.638C312.733 92.49 312.325 92.416 311.873 92.416H309.917V98.968H311.873C312.325 98.968 312.733 98.894 313.097 98.746C313.465 98.598 313.777 98.384 314.033 98.104C314.293 97.82 314.493 97.476 314.633 97.072C314.773 96.668 314.843 96.208 314.843 95.692ZM322.466 96.79L321.188 93.448C321.096 93.22 321.004 92.932 320.912 92.584C320.868 92.756 320.822 92.916 320.774 93.064C320.73 93.212 320.686 93.344 320.642 93.46L319.37 96.79H322.466ZM324.992 100H324.008C323.896 100 323.804 99.972 323.732 99.916C323.66 99.86 323.608 99.788 323.576 99.7L322.814 97.702H319.016L318.254 99.7C318.226 99.776 318.174 99.846 318.098 99.91C318.022 99.97 317.93 100 317.822 100H316.838L320.27 91.384H321.56L324.992 100ZM328.926 96.592V100H327.654V96.592L324.498 91.384H325.62C325.732 91.384 325.822 91.412 325.89 91.468C325.958 91.52 326.014 91.59 326.058 91.678L327.93 94.9C328.006 95.048 328.074 95.188 328.134 95.32C328.198 95.452 328.254 95.582 328.302 95.71C328.346 95.582 328.396 95.452 328.452 95.32C328.512 95.188 328.58 95.048 328.656 94.9L330.522 91.678C330.562 91.606 330.616 91.54 330.684 91.48C330.756 91.416 330.846 91.384 330.954 91.384H332.082L328.926 96.592Z" fill="#686868"/>
<path d="M368.436 95.692C368.436 96.336 368.332 96.922 368.124 97.45C367.92 97.978 367.63 98.432 367.254 98.812C366.878 99.188 366.428 99.48 365.904 99.688C365.38 99.896 364.798 100 364.158 100H360.918V91.384H364.158C364.798 91.384 365.38 91.488 365.904 91.696C366.428 91.904 366.878 92.198 367.254 92.578C367.63 92.954 367.92 93.408 368.124 93.94C368.332 94.468 368.436 95.052 368.436 95.692ZM367.128 95.692C367.128 95.18 367.058 94.722 366.918 94.318C366.778 93.91 366.578 93.566 366.318 93.286C366.062 93.002 365.75 92.786 365.382 92.638C365.018 92.49 364.61 92.416 364.158 92.416H362.202V98.968H364.158C364.61 98.968 365.018 98.894 365.382 98.746C365.75 98.598 366.062 98.384 366.318 98.104C366.578 97.82 366.778 97.476 366.918 97.072C367.058 96.668 367.128 96.208 367.128 95.692ZM374.751 96.79L373.473 93.448C373.381 93.22 373.289 92.932 373.197 92.584C373.153 92.756 373.107 92.916 373.059 93.064C373.015 93.212 372.971 93.344 372.927 93.46L371.655 96.79H374.751ZM377.277 100H376.293C376.181 100 376.089 99.972 376.017 99.916C375.945 99.86 375.893 99.788 375.861 99.7L375.099 97.702H371.301L370.539 99.7C370.511 99.776 370.459 99.846 370.383 99.91C370.307 99.97 370.215 100 370.107 100H369.123L372.555 91.384H373.845L377.277 100ZM381.211 96.592V100H379.939V96.592L376.783 91.384H377.905C378.017 91.384 378.107 91.412 378.175 91.468C378.243 91.52 378.299 91.59 378.343 91.678L380.215 94.9C380.291 95.048 380.359 95.188 380.419 95.32C380.483 95.452 380.539 95.582 380.587 95.71C380.631 95.582 380.681 95.452 380.737 95.32C380.797 95.188 380.865 95.048 380.941 94.9L382.807 91.678C382.847 91.606 382.901 91.54 382.969 91.48C383.041 91.416 383.131 91.384 383.239 91.384H384.367L381.211 96.592Z" fill="#686868"/>
<path d="M63.0486 145.659V147H56.0646V145.659H58.8006V137.19C58.8006 136.92 58.8096 136.641 58.8276 136.353L56.6316 138.216C56.5476 138.282 56.4636 138.324 56.3796 138.342C56.2956 138.36 56.2146 138.363 56.1366 138.351C56.0646 138.339 55.9986 138.315 55.9386 138.279C55.8846 138.237 55.8396 138.195 55.8036 138.153L55.2546 137.388L59.1246 134.049H60.5556V145.659H63.0486Z" fill="#686868"/>
<path d="M115.191 145.659V147H108.207V145.659H110.943V137.19C110.943 136.92 110.952 136.641 110.97 136.353L108.774 138.216C108.69 138.282 108.606 138.324 108.522 138.342C108.438 138.36 108.357 138.363 108.279 138.351C108.207 138.339 108.141 138.315 108.081 138.279C108.027 138.237 107.982 138.195 107.946 138.153L107.397 137.388L111.267 134.049H112.698V145.659H115.191Z" fill="#686868"/>
<path d="M167.335 145.659V147H160.351V145.659H163.087V137.19C163.087 136.92 163.096 136.641 163.114 136.353L160.918 138.216C160.834 138.282 160.75 138.324 160.666 138.342C160.582 138.36 160.501 138.363 160.423 138.351C160.351 138.339 160.285 138.315 160.225 138.279C160.171 138.237 160.126 138.195 160.09 138.153L159.541 137.388L163.411 134.049H164.842V145.659H167.335Z" fill="#686868"/>
<path d="M219.477 145.659V147H212.493V145.659H215.229V137.19C215.229 136.92 215.238 136.641 215.256 136.353L213.06 138.216C212.976 138.282 212.892 138.324 212.808 138.342C212.724 138.36 212.643 138.363 212.565 138.351C212.493 138.339 212.427 138.315 212.367 138.279C212.313 138.237 212.268 138.195 212.232 138.153L211.683 137.388L215.553 134.049H216.984V145.659H219.477Z" fill="#686868"/>
<path d="M271.62 145.659V147H264.636V145.659H267.372V137.19C267.372 136.92 267.381 136.641 267.399 136.353L265.203 138.216C265.119 138.282 265.035 138.324 264.951 138.342C264.867 138.36 264.786 138.363 264.708 138.351C264.636 138.339 264.57 138.315 264.51 138.279C264.456 138.237 264.411 138.195 264.375 138.153L263.826 137.388L267.696 134.049H269.127V145.659H271.62Z" fill="#686868"/>
<path d="M323.762 145.659V147H316.778V145.659H319.514V137.19C319.514 136.92 319.523 136.641 319.541 136.353L317.345 138.216C317.261 138.282 317.177 138.324 317.093 138.342C317.009 138.36 316.928 138.363 316.85 138.351C316.778 138.339 316.712 138.315 316.652 138.279C316.598 138.237 316.553 138.195 316.517 138.153L315.968 137.388L319.838 134.049H321.269V145.659H323.762Z" fill="#686868"/>
<path d="M375.906 145.659V147H368.922V145.659H371.658V137.19C371.658 136.92 371.667 136.641 371.685 136.353L369.489 138.216C369.405 138.282 369.321 138.324 369.237 138.342C369.153 138.36 369.072 138.363 368.994 138.351C368.922 138.339 368.856 138.315 368.796 138.279C368.742 138.237 368.697 138.195 368.661 138.153L368.112 137.388L371.982 134.049H373.413V145.659H375.906Z" fill="#686868"/>
<path d="M63.0486 195.659V197H56.0646V195.659H58.8006V187.19C58.8006 186.92 58.8096 186.641 58.8276 186.353L56.6316 188.216C56.5476 188.282 56.4636 188.324 56.3796 188.342C56.2956 188.36 56.2146 188.363 56.1366 188.351C56.0646 188.339 55.9986 188.315 55.9386 188.279C55.8846 188.237 55.8396 188.195 55.8036 188.153L55.2546 187.388L59.1246 184.049H60.5556V195.659H63.0486Z" fill="#686868"/>
<path d="M115.191 195.659V197H108.207V195.659H110.943V187.19C110.943 186.92 110.952 186.641 110.97 186.353L108.774 188.216C108.69 188.282 108.606 188.324 108.522 188.342C108.438 188.36 108.357 188.363 108.279 188.351C108.207 188.339 108.141 188.315 108.081 188.279C108.027 188.237 107.982 188.195 107.946 188.153L107.397 187.388L111.267 184.049H112.698V195.659H115.191Z" fill="#686868"/>
<path d="M167.335 195.659V197H160.351V195.659H163.087V187.19C163.087 186.92 163.096 186.641 163.114 186.353L160.918 188.216C160.834 188.282 160.75 188.324 160.666 188.342C160.582 188.36 160.501 188.363 160.423 188.351C160.351 188.339 160.285 188.315 160.225 188.279C160.171 188.237 160.126 188.195 160.09 188.153L159.541 187.388L163.411 184.049H164.842V195.659H167.335Z" fill="#686868"/>
<path d="M219.477 195.659V197H212.493V195.659H215.229V187.19C215.229 186.92 215.238 186.641 215.256 186.353L213.06 188.216C212.976 188.282 212.892 188.324 212.808 188.342C212.724 188.36 212.643 188.363 212.565 188.351C212.493 188.339 212.427 188.315 212.367 188.279C212.313 188.237 212.268 188.195 212.232 188.153L211.683 187.388L215.553 184.049H216.984V195.659H219.477Z" fill="#686868"/>
<path d="M271.62 195.659V197H264.636V195.659H267.372V187.19C267.372 186.92 267.381 186.641 267.399 186.353L265.203 188.216C265.119 188.282 265.035 188.324 264.951 188.342C264.867 188.36 264.786 188.363 264.708 188.351C264.636 188.339 264.57 188.315 264.51 188.279C264.456 188.237 264.411 188.195 264.375 188.153L263.826 187.388L267.696 184.049H269.127V195.659H271.62Z" fill="#686868"/>
<path d="M323.762 195.659V197H316.778V195.659H319.514V187.19C319.514 186.92 319.523 186.641 319.541 186.353L317.345 188.216C317.261 188.282 317.177 188.324 317.093 188.342C317.009 188.36 316.928 188.363 316.85 188.351C316.778 188.339 316.712 188.315 316.652 188.279C316.598 188.237 316.553 188.195 316.517 188.153L315.968 187.388L319.838 184.049H321.269V195.659H323.762Z" fill="#686868"/>
<path d="M375.906 195.659V197H368.922V195.659H371.658V187.19C371.658 186.92 371.667 186.641 371.685 186.353L369.489 188.216C369.405 188.282 369.321 188.324 369.237 188.342C369.153 188.36 369.072 188.363 368.994 188.351C368.922 188.339 368.856 188.315 368.796 188.279C368.742 188.237 368.697 188.195 368.661 188.153L368.112 187.388L371.982 184.049H373.413V195.659H375.906Z" fill="#686868"/>
<path d="M63.0486 245.659V247H56.0646V245.659H58.8006V237.19C58.8006 236.92 58.8096 236.641 58.8276 236.353L56.6316 238.216C56.5476 238.282 56.4636 238.324 56.3796 238.342C56.2956 238.36 56.2146 238.363 56.1366 238.351C56.0646 238.339 55.9986 238.315 55.9386 238.279C55.8846 238.237 55.8396 238.195 55.8036 238.153L55.2546 237.388L59.1246 234.049H60.5556V245.659H63.0486Z" fill="#686868"/>
<path d="M115.191 245.659V247H108.207V245.659H110.943V237.19C110.943 236.92 110.952 236.641 110.97 236.353L108.774 238.216C108.69 238.282 108.606 238.324 108.522 238.342C108.438 238.36 108.357 238.363 108.279 238.351C108.207 238.339 108.141 238.315 108.081 238.279C108.027 238.237 107.982 238.195 107.946 238.153L107.397 237.388L111.267 234.049H112.698V245.659H115.191Z" fill="#686868"/>
<path d="M167.335 245.659V247H160.351V245.659H163.087V237.19C163.087 236.92 163.096 236.641 163.114 236.353L160.918 238.216C160.834 238.282 160.75 238.324 160.666 238.342C160.582 238.36 160.501 238.363 160.423 238.351C160.351 238.339 160.285 238.315 160.225 238.279C160.171 238.237 160.126 238.195 160.09 238.153L159.541 237.388L163.411 234.049H164.842V245.659H167.335Z" fill="#686868"/>
<path d="M219.477 245.659V247H212.493V245.659H215.229V237.19C215.229 236.92 215.238 236.641 215.256 236.353L213.06 238.216C212.976 238.282 212.892 238.324 212.808 238.342C212.724 238.36 212.643 238.363 212.565 238.351C212.493 238.339 212.427 238.315 212.367 238.279C212.313 238.237 212.268 238.195 212.232 238.153L211.683 237.388L215.553 234.049H216.984V245.659H219.477Z" fill="#686868"/>
<path d="M271.62 245.659V247H264.636V245.659H267.372V237.19C267.372 236.92 267.381 236.641 267.399 236.353L265.203 238.216C265.119 238.282 265.035 238.324 264.951 238.342C264.867 238.36 264.786 238.363 264.708 238.351C264.636 238.339 264.57 238.315 264.51 238.279C264.456 238.237 264.411 238.195 264.375 238.153L263.826 237.388L267.696 234.049H269.127V245.659H271.62Z" fill="#686868"/>
<path d="M323.762 245.659V247H316.778V245.659H319.514V237.19C319.514 236.92 319.523 236.641 319.541 236.353L317.345 238.216C317.261 238.282 317.177 238.324 317.093 238.342C317.009 238.36 316.928 238.363 316.85 238.351C316.778 238.339 316.712 238.315 316.652 238.279C316.598 238.237 316.553 238.195 316.517 238.153L315.968 237.388L319.838 234.049H321.269V245.659H323.762Z" fill="#686868"/>
<path d="M375.906 245.659V247H368.922V245.659H371.658V237.19C371.658 236.92 371.667 236.641 371.685 236.353L369.489 238.216C369.405 238.282 369.321 238.324 369.237 238.342C369.153 238.36 369.072 238.363 368.994 238.351C368.922 238.339 368.856 238.315 368.796 238.279C368.742 238.237 368.697 238.195 368.661 238.153L368.112 237.388L371.982 234.049H373.413V245.659H375.906Z" fill="#686868"/>
<path d="M63.0486 295.659V297H56.0646V295.659H58.8006V287.19C58.8006 286.92 58.8096 286.641 58.8276 286.353L56.6316 288.216C56.5476 288.282 56.4636 288.324 56.3796 288.342C56.2956 288.36 56.2146 288.363 56.1366 288.351C56.0646 288.339 55.9986 288.315 55.9386 288.279C55.8846 288.237 55.8396 288.195 55.8036 288.153L55.2546 287.388L59.1246 284.049H60.5556V295.659H63.0486Z" fill="#686868"/>
<path d="M115.191 295.659V297H108.207V295.659H110.943V287.19C110.943 286.92 110.952 286.641 110.97 286.353L108.774 288.216C108.69 288.282 108.606 288.324 108.522 288.342C108.438 288.36 108.357 288.363 108.279 288.351C108.207 288.339 108.141 288.315 108.081 288.279C108.027 288.237 107.982 288.195 107.946 288.153L107.397 287.388L111.267 284.049H112.698V295.659H115.191Z" fill="#686868"/>
<path d="M167.335 295.659V297H160.351V295.659H163.087V287.19C163.087 286.92 163.096 286.641 163.114 286.353L160.918 288.216C160.834 288.282 160.75 288.324 160.666 288.342C160.582 288.36 160.501 288.363 160.423 288.351C160.351 288.339 160.285 288.315 160.225 288.279C160.171 288.237 160.126 288.195 160.09 288.153L159.541 287.388L163.411 284.049H164.842V295.659H167.335Z" fill="#686868"/>
<path d="M219.477 295.659V297H212.493V295.659H215.229V287.19C215.229 286.92 215.238 286.641 215.256 286.353L213.06 288.216C212.976 288.282 212.892 288.324 212.808 288.342C212.724 288.36 212.643 288.363 212.565 288.351C212.493 288.339 212.427 288.315 212.367 288.279C212.313 288.237 212.268 288.195 212.232 288.153L211.683 287.388L215.553 284.049H216.984V295.659H219.477Z" fill="#686868"/>
<path d="M271.62 295.659V297H264.636V295.659H267.372V287.19C267.372 286.92 267.381 286.641 267.399 286.353L265.203 288.216C265.119 288.282 265.035 288.324 264.951 288.342C264.867 288.36 264.786 288.363 264.708 288.351C264.636 288.339 264.57 288.315 264.51 288.279C264.456 288.237 264.411 288.195 264.375 288.153L263.826 287.388L267.696 284.049H269.127V295.659H271.62Z" fill="#686868"/>
<path d="M323.762 295.659V297H316.778V295.659H319.514V287.19C319.514 286.92 319.523 286.641 319.541 286.353L317.345 288.216C317.261 288.282 317.177 288.324 317.093 288.342C317.009 288.36 316.928 288.363 316.85 288.351C316.778 288.339 316.712 288.315 316.652 288.279C316.598 288.237 316.553 288.195 316.517 288.153L315.968 287.388L319.838 284.049H321.269V295.659H323.762Z" fill="#686868"/>
<path d="M375.906 295.659V297H368.922V295.659H371.658V287.19C371.658 286.92 371.667 286.641 371.685 286.353L369.489 288.216C369.405 288.282 369.321 288.324 369.237 288.342C369.153 288.36 369.072 288.363 368.994 288.351C368.922 288.339 368.856 288.315 368.796 288.279C368.742 288.237 368.697 288.195 368.661 288.153L368.112 287.388L371.982 284.049H373.413V295.659H375.906Z" fill="#686868"/>
<path d="M63.0486 345.659V347H56.0646V345.659H58.8006V337.19C58.8006 336.92 58.8096 336.641 58.8276 336.353L56.6316 338.216C56.5476 338.282 56.4636 338.324 56.3796 338.342C56.2956 338.36 56.2146 338.363 56.1366 338.351C56.0646 338.339 55.9986 338.315 55.9386 338.279C55.8846 338.237 55.8396 338.195 55.8036 338.153L55.2546 337.388L59.1246 334.049H60.5556V345.659H63.0486Z" fill="#686868"/>
<path d="M115.191 345.659V347H108.207V345.659H110.943V337.19C110.943 336.92 110.952 336.641 110.97 336.353L108.774 338.216C108.69 338.282 108.606 338.324 108.522 338.342C108.438 338.36 108.357 338.363 108.279 338.351C108.207 338.339 108.141 338.315 108.081 338.279C108.027 338.237 107.982 338.195 107.946 338.153L107.397 337.388L111.267 334.049H112.698V345.659H115.191Z" fill="#686868"/>
<path d="M167.335 345.659V347H160.351V345.659H163.087V337.19C163.087 336.92 163.096 336.641 163.114 336.353L160.918 338.216C160.834 338.282 160.75 338.324 160.666 338.342C160.582 338.36 160.501 338.363 160.423 338.351C160.351 338.339 160.285 338.315 160.225 338.279C160.171 338.237 160.126 338.195 160.09 338.153L159.541 337.388L163.411 334.049H164.842V345.659H167.335Z" fill="#686868"/>
<path d="M219.477 345.659V347H212.493V345.659H215.229V337.19C215.229 336.92 215.238 336.641 215.256 336.353L213.06 338.216C212.976 338.282 212.892 338.324 212.808 338.342C212.724 338.36 212.643 338.363 212.565 338.351C212.493 338.339 212.427 338.315 212.367 338.279C212.313 338.237 212.268 338.195 212.232 338.153L211.683 337.388L215.553 334.049H216.984V345.659H219.477Z" fill="#686868"/>
<path d="M271.62 345.659V347H264.636V345.659H267.372V337.19C267.372 336.92 267.381 336.641 267.399 336.353L265.203 338.216C265.119 338.282 265.035 338.324 264.951 338.342C264.867 338.36 264.786 338.363 264.708 338.351C264.636 338.339 264.57 338.315 264.51 338.279C264.456 338.237 264.411 338.195 264.375 338.153L263.826 337.388L267.696 334.049H269.127V345.659H271.62Z" fill="#686868"/>
<path d="M323.762 345.659V347H316.778V345.659H319.514V337.19C319.514 336.92 319.523 336.641 319.541 336.353L317.345 338.216C317.261 338.282 317.177 338.324 317.093 338.342C317.009 338.36 316.928 338.363 316.85 338.351C316.778 338.339 316.712 338.315 316.652 338.279C316.598 338.237 316.553 338.195 316.517 338.153L315.968 337.388L319.838 334.049H321.269V345.659H323.762Z" fill="#686868"/>
<path d="M375.906 345.659V347H368.922V345.659H371.658V337.19C371.658 336.92 371.667 336.641 371.685 336.353L369.489 338.216C369.405 338.282 369.321 338.324 369.237 338.342C369.153 338.36 369.072 338.363 368.994 338.351C368.922 338.339 368.856 338.315 368.796 338.279C368.742 338.237 368.697 338.195 368.661 338.153L368.112 337.388L371.982 334.049H373.413V345.659H375.906Z" fill="#686868"/>
</g>
<defs>
<filter id="filter0_d_670_2430" x="0" y="0" width="435" height="377" filterUnits="userSpaceOnUse" color-interpolation-filters="sRGB">
<feFlood flood-opacity="0" result="BackgroundImageFix"/>
<feColorMatrix in="SourceAlpha" type="matrix" values="0 0 0 0 0 0 0 0 0 0 0 0 0 0 0 0 0 0 127 0" result="hardAlpha"/>
<feOffset dx="2" dy="4"/>
<feGaussianBlur stdDeviation="2"/>
<feComposite in2="hardAlpha" operator="out"/>
<feColorMatrix type="matrix" values="0 0 0 0 0 0 0 0 0 0 0 0 0 0 0 0 0 0 0.25 0"/>
<feBlend mode="normal" in2="BackgroundImageFix" result="effect1_dropShadow_670_2430"/>
<feBlend mode="normal" in="SourceGraphic" in2="effect1_dropShadow_670_2430" result="shape"/>
</filter>
</defs>
</svg>
