<svg width="56" height="58" viewBox="0 0 56 58" fill="none" xmlns="http://www.w3.org/2000/svg">
<mask id="mask0_684_937" style="mask-type:alpha" maskUnits="userSpaceOnUse" x="0" y="0" width="56" height="58">
<path d="M16.1975 1.08793C13.2557 1.22963 11.2464 1.71049 9.49064 2.41258C7.67308 3.13567 6.13234 4.10473 4.59963 5.67528C3.06512 7.24674 2.12274 8.82186 1.41956 10.6786C0.738747 12.4749 0.277401 14.5263 0.147494 17.5303C0.0185165 20.5398 -0.0110614 21.4997 0.0033156 29.1614C0.0176373 36.8222 0.0507706 37.7839 0.191399 40.7943C0.332023 43.7955 0.801464 45.8451 1.48944 47.6378C2.1989 49.4927 3.14752 51.0641 4.68738 52.6292C6.22638 54.1943 7.77073 55.1551 9.59097 55.8736C11.3494 56.5675 13.3605 57.0401 16.3032 57.1718C19.2522 57.3043 20.1936 57.3336 27.6995 57.319C35.209 57.3043 36.1505 57.2705 39.0994 57.1279C42.0412 56.9844 44.0487 56.5035 45.8063 55.8033C47.6238 55.0774 49.1646 54.1111 50.6973 52.5396C52.23 50.9691 53.1724 49.393 53.8756 47.5354C54.5564 45.7409 55.0195 43.6886 55.1476 40.6873C55.2766 37.676 55.3071 36.7143 55.2927 29.0535C55.2784 21.3918 55.2444 20.4319 55.1047 17.4234C54.9649 14.4194 54.4937 12.3707 53.8066 10.5771C53.0963 8.72224 52.1485 7.15167 50.6095 5.58569C49.0706 4.02154 47.5262 3.05798 45.706 2.34219C43.9466 1.64741 41.9364 1.17386 38.9937 1.04405C36.0448 0.910578 35.1033 0.881342 27.5947 0.895963C20.0879 0.910584 19.1465 0.943505 16.1975 1.08793ZM16.52 52.0935C13.8245 51.9737 12.3608 51.5167 11.3853 51.1336C10.0935 50.6235 9.17178 50.0119 8.20162 49.0292C7.23327 48.0428 6.63217 47.1048 6.12785 45.7893C5.7489 44.7938 5.29296 43.3019 5.16666 40.5511C5.02959 37.5773 4.99826 36.6851 4.98481 29.1513C4.97048 21.6194 4.99733 20.7272 5.12456 17.7506C5.24009 15.0017 5.69072 13.5061 6.06513 12.5115C6.56497 11.1914 7.16246 10.2525 8.12726 9.26251C9.09381 8.27245 10.0129 7.66085 11.3028 7.14619C12.2775 6.75764 13.7394 6.29598 16.434 6.16528C19.3498 6.02447 20.2232 5.99432 27.6037 5.9797C34.9859 5.96505 35.8602 5.99158 38.777 6.12231C41.4706 6.24205 42.9361 6.69733 43.9099 7.08219C45.2025 7.59229 46.1243 8.20022 47.0935 9.18663C48.0628 10.173 48.6639 11.1091 49.1682 12.4283C49.5489 13.4202 50.0013 14.9139 50.1285 17.6629C50.2673 20.6385 50.2987 21.5307 50.3121 29.0627C50.3264 36.5964 50.2996 37.4886 50.1715 40.4633C50.0541 43.2141 49.6071 44.7088 49.2309 45.7052C48.7311 47.0226 48.1335 47.9632 47.1678 48.9533C46.2022 49.9397 45.2831 50.5549 43.9923 51.0696C43.0194 51.4572 41.5557 51.9198 38.8629 52.0505C35.9472 52.1904 35.0737 52.2224 27.6906 52.2361C20.3101 52.2508 19.4367 52.2224 16.52 52.0935ZM39.0592 14.0254C39.0627 15.894 40.5515 17.4069 42.3825 17.4033C44.2144 17.3996 45.697 15.8812 45.6943 14.0126C45.6907 12.144 44.2019 10.6301 42.37 10.6338C40.5381 10.6374 39.0555 12.1568 39.0592 14.0254ZM13.4519 29.1349C13.4671 37.1367 19.8353 43.609 27.6744 43.5935C35.5145 43.578 41.8603 37.0809 41.8451 29.0791C41.8298 21.0801 35.4607 14.604 27.6198 14.6196C19.7807 14.6351 13.4367 21.1349 13.4519 29.1349ZM18.4316 29.1248C18.4226 23.9314 22.5415 19.7125 27.6297 19.7033C32.7187 19.6933 36.8537 23.8948 36.8635 29.0892C36.8734 34.2835 32.7545 38.5015 27.6646 38.5116C22.5765 38.5216 18.4415 34.3192 18.4316 29.1248Z" fill="#7795A0"/>
</mask>
<g mask="url(#mask0_684_937)">
<rect x="-2.31641" y="-1.47018" width="60.2035" height="61.438" fill="#7795A0"/>
<g filter="url(#filter0_f_684_937)">
<ellipse cx="34.7805" cy="24.7787" rx="34.7805" ry="24.7787" transform="matrix(0.964908 -0.26259 0.252824 0.967512 -30.873 -18.6488)" fill="#7795A0"/>
</g>
<g filter="url(#filter1_f_684_937)">
<ellipse cx="55.9575" cy="-1.07629" rx="32.8032" ry="33.4758" fill="#7795A0"/>
</g>
<g filter="url(#filter2_f_684_937)">
<ellipse cx="9.26244" cy="53.6664" rx="18.5242" ry="18.904" fill="#7795A0"/>
</g>
</g>
<defs>
<filter id="filter0_f_684_937" x="-50.6651" y="-54.9403" width="119.233" height="102.264" filterUnits="userSpaceOnUse" color-interpolation-filters="sRGB">
<feFlood flood-opacity="0" result="BackgroundImageFix"/>
<feBlend mode="normal" in="SourceGraphic" in2="BackgroundImageFix" result="shape"/>
<feGaussianBlur stdDeviation="12.7354" result="effect1_foregroundBlur_684_937"/>
</filter>
<filter id="filter1_f_684_937" x="-7.7193" y="-65.4257" width="127.354" height="128.699" filterUnits="userSpaceOnUse" color-interpolation-filters="sRGB">
<feFlood flood-opacity="0" result="BackgroundImageFix"/>
<feBlend mode="normal" in="SourceGraphic" in2="BackgroundImageFix" result="shape"/>
<feGaussianBlur stdDeviation="15.4368" result="effect1_foregroundBlur_684_937"/>
</filter>
<filter id="filter2_f_684_937" x="-33.9606" y="10.0636" width="86.4456" height="87.2057" filterUnits="userSpaceOnUse" color-interpolation-filters="sRGB">
<feFlood flood-opacity="0" result="BackgroundImageFix"/>
<feBlend mode="normal" in="SourceGraphic" in2="BackgroundImageFix" result="shape"/>
<feGaussianBlur stdDeviation="12.3494" result="effect1_foregroundBlur_684_937"/>
</filter>
</defs>
</svg>
