<svg width="28" height="29" viewBox="0 0 28 29" fill="none" xmlns="http://www.w3.org/2000/svg">
<mask id="mask0_712_252" style="mask-type:alpha" maskUnits="userSpaceOnUse" x="0" y="0" width="28" height="29">
<path d="M8.37901 0.88278C6.90811 0.953627 5.90349 1.19406 5.0256 1.5451C4.11681 1.90665 3.34644 2.39118 2.58009 3.17645C1.81283 3.96218 1.34164 4.74974 0.990055 5.67809C0.649647 6.57627 0.418974 7.60199 0.354021 9.10397C0.289532 10.6087 0.274743 11.0886 0.281931 14.9195C0.289092 18.7499 0.305659 19.2308 0.375973 20.736C0.446285 22.2366 0.681005 23.2614 1.02499 24.1577C1.37973 25.0852 1.85403 25.8709 2.62397 26.6534C3.39346 27.436 4.16564 27.9164 5.07576 28.2756C5.95499 28.6226 6.96052 28.8589 8.43188 28.9247C9.90636 28.991 10.3771 29.0056 14.13 28.9983C17.8848 28.991 18.3555 28.9741 19.83 28.9028C21.3009 28.831 22.3046 28.5906 23.1834 28.2404C24.0922 27.8775 24.8626 27.3944 25.6289 26.6086C26.3953 25.8233 26.8665 25.0353 27.2181 24.1065C27.5585 23.2093 27.79 22.1831 27.8541 20.6825C27.9186 19.1768 27.9338 18.696 27.9266 14.8656C27.9195 11.0347 27.9025 10.5548 27.8326 9.0505C27.7627 7.5485 27.5271 6.52417 27.1836 5.62736C26.8284 4.69993 26.3545 3.91465 25.585 3.13166C24.8155 2.34958 24.0434 1.8678 23.1333 1.50991C22.2536 1.16252 21.2485 0.925742 19.7771 0.860837C18.3026 0.794103 17.8319 0.779485 14.0776 0.786795C10.3242 0.794106 9.85352 0.810566 8.37901 0.88278ZM8.54028 26.3856C7.19253 26.3257 6.46068 26.0971 5.97292 25.9056C5.32705 25.6506 4.86616 25.3448 4.38108 24.8534C3.89691 24.3602 3.59636 23.8912 3.3442 23.2335C3.15472 22.7357 2.92676 21.9897 2.8636 20.6144C2.79507 19.1275 2.77941 18.6813 2.77268 14.9145C2.76552 11.1485 2.77894 10.7024 2.84255 9.21413C2.90032 7.83966 3.12563 7.09187 3.31284 6.59455C3.56276 5.93452 3.8615 5.46508 4.3439 4.97007C4.82718 4.47504 5.28672 4.16924 5.93169 3.91191C6.41901 3.71764 7.14999 3.4868 8.49727 3.42145C9.95518 3.35105 10.3919 3.33597 14.0821 3.32866C17.7732 3.32134 18.2104 3.3346 19.6688 3.39997C21.0156 3.45984 21.7483 3.68748 22.2352 3.87991C22.8815 4.13496 23.3424 4.43892 23.827 4.93213C24.3117 5.42533 24.6122 5.89338 24.8644 6.55296C25.0547 7.04889 25.2809 7.79578 25.3445 9.17025C25.4139 10.6581 25.4296 11.1042 25.4363 14.8701C25.4435 18.637 25.4301 19.0831 25.366 20.5705C25.3073 21.9459 25.0838 22.6932 24.8957 23.1914C24.6458 23.8501 24.347 24.3204 23.8642 24.8155C23.3814 25.3087 22.9218 25.6163 22.2764 25.8736C21.79 26.0674 21.0581 26.2987 19.7117 26.3641C18.2539 26.434 17.8171 26.45 14.1256 26.4569C10.4353 26.4642 9.99862 26.45 8.54028 26.3856ZM19.8099 7.3515C19.8116 8.28579 20.556 9.04227 21.4715 9.04044C22.3875 9.03862 23.1288 8.27939 23.1274 7.3451C23.1256 6.41081 22.3812 5.65388 21.4653 5.65571C20.5493 5.65753 19.808 6.41721 19.8099 7.3515ZM7.00623 14.9062C7.01383 18.9072 10.1979 22.1433 14.1175 22.1356C18.0375 22.1278 21.2104 18.8793 21.2028 14.8784C21.1952 10.8789 18.0106 7.64083 14.0902 7.6486C10.1706 7.65637 6.9986 10.9063 7.00623 14.9062ZM9.49608 14.9012C9.4916 12.3045 11.551 10.195 14.0951 10.1905C16.6396 10.1855 18.7071 12.2862 18.712 14.8834C18.717 17.4806 16.6575 19.5896 14.1126 19.5946C11.5685 19.5996 9.501 17.4984 9.49608 14.9012Z" fill="#F8E8DD"/>
</mask>
<g mask="url(#mask0_712_252)">
<rect x="-0.87793" y="-0.396263" width="30.1018" height="30.719" fill="#F8E8DD"/>
<g filter="url(#filter0_f_712_252)">
<ellipse cx="17.3903" cy="12.3893" rx="17.3903" ry="12.3893" transform="matrix(0.964908 -0.26259 0.252824 0.967512 -15.1562 -8.9856)" fill="#F8E8DD"/>
</g>
<g filter="url(#filter1_f_712_252)">
<ellipse cx="28.259" cy="-0.199316" rx="16.4016" ry="16.7379" fill="#F8E8DD"/>
</g>
<g filter="url(#filter2_f_712_252)">
<ellipse cx="4.91149" cy="27.1721" rx="9.26208" ry="9.45199" fill="#F8E8DD"/>
</g>
</g>
<defs>
<filter id="filter0_f_712_252" x="-25.0518" y="-27.1313" width="59.6162" height="51.1321" filterUnits="userSpaceOnUse" color-interpolation-filters="sRGB">
<feFlood flood-opacity="0" result="BackgroundImageFix"/>
<feBlend mode="normal" in="SourceGraphic" in2="BackgroundImageFix" result="shape"/>
<feGaussianBlur stdDeviation="6.36768" result="effect1_foregroundBlur_712_252"/>
</filter>
<filter id="filter1_f_712_252" x="-3.57938" y="-32.374" width="63.6763" height="64.3494" filterUnits="userSpaceOnUse" color-interpolation-filters="sRGB">
<feFlood flood-opacity="0" result="BackgroundImageFix"/>
<feBlend mode="normal" in="SourceGraphic" in2="BackgroundImageFix" result="shape"/>
<feGaussianBlur stdDeviation="7.7184" result="effect1_foregroundBlur_712_252"/>
</filter>
<filter id="filter2_f_712_252" x="-16.7" y="5.37062" width="43.2233" height="43.6029" filterUnits="userSpaceOnUse" color-interpolation-filters="sRGB">
<feFlood flood-opacity="0" result="BackgroundImageFix"/>
<feBlend mode="normal" in="SourceGraphic" in2="BackgroundImageFix" result="shape"/>
<feGaussianBlur stdDeviation="6.17472" result="effect1_foregroundBlur_712_252"/>
</filter>
</defs>
</svg>
