<svg width="115" height="79" viewBox="0 0 115 79" fill="none" xmlns="http://www.w3.org/2000/svg">
<path d="M57.4531 29.4668L57.4531 0.999869" stroke="white" stroke-width="0.729003" stroke-miterlimit="10" stroke-linecap="round" stroke-linejoin="round"/>
<path d="M29.3737 57.5449L0.90625 57.5449" stroke="white" stroke-width="0.729003" stroke-miterlimit="10" stroke-linecap="round" stroke-linejoin="round"/>
<path d="M114.001 57.5449L85.5332 57.5449" stroke="white" stroke-width="0.729003" stroke-miterlimit="10" stroke-linecap="round" stroke-linejoin="round"/>
<path d="M37.5981 37.6895L23.3818 23.4731" stroke="white" stroke-width="0.729003" stroke-miterlimit="10" stroke-linecap="round" stroke-linejoin="round"/>
<path d="M91.5248 23.4731L77.3086 37.6895" stroke="white" stroke-width="0.729003" stroke-miterlimit="10" stroke-linecap="round" stroke-linejoin="round"/>
<path d="M46.9711 31.4944L39.4668 12.8435" stroke="white" stroke-width="0.729003" stroke-miterlimit="10" stroke-linecap="round" stroke-linejoin="round"/>
<path d="M102.155 39.5559L83.5039 47.061" stroke="white" stroke-width="0.729003" stroke-miterlimit="10" stroke-linecap="round" stroke-linejoin="round"/>
<path d="M31.6212 46.5347L13.1279 38.6534" stroke="white" stroke-width="0.729003" stroke-miterlimit="10" stroke-linecap="round" stroke-linejoin="round"/>
<path d="M76.3424 13.2161L68.4619 31.7117" stroke="white" stroke-width="0.729003" stroke-miterlimit="10" stroke-linecap="round" stroke-linejoin="round"/>
<path d="M34.5258 41.3325L25.9316 35.2541" stroke="white" stroke-width="0.729003" stroke-miterlimit="10" stroke-linecap="round" stroke-linejoin="round"/>
<path d="M79.742 26.021L73.665 34.6152" stroke="white" stroke-width="0.729003" stroke-miterlimit="10" stroke-linecap="round" stroke-linejoin="round"/>
<path d="M29.9589 51.8403L19.6523 49.7036" stroke="white" stroke-width="0.729003" stroke-miterlimit="10" stroke-linecap="round" stroke-linejoin="round"/>
<path d="M95.2548 65.3848L84.9482 63.2466" stroke="white" stroke-width="0.729003" stroke-miterlimit="10" stroke-linecap="round" stroke-linejoin="round"/>
<path d="M65.2937 19.7417L63.1562 30.0469" stroke="white" stroke-width="0.729003" stroke-miterlimit="10" stroke-linecap="round" stroke-linejoin="round"/>
<path d="M29.7792 62.2913L19.4033 64.0723" stroke="white" stroke-width="0.729003" stroke-miterlimit="10" stroke-linecap="round" stroke-linejoin="round"/>
<path d="M95.5036 51.0162L85.1299 52.7964" stroke="white" stroke-width="0.729003" stroke-miterlimit="10" stroke-linecap="round" stroke-linejoin="round"/>
<path d="M50.9258 19.4934L52.7053 29.8665" stroke="white" stroke-width="0.729003" stroke-miterlimit="10" stroke-linecap="round" stroke-linejoin="round"/>
<path d="M42.1002 34.032L36.3447 25.2183" stroke="white" stroke-width="0.729003" stroke-miterlimit="10" stroke-linecap="round" stroke-linejoin="round"/>
<path d="M89.7775 36.4335L80.9639 42.1897" stroke="white" stroke-width="0.729003" stroke-miterlimit="10" stroke-linecap="round" stroke-linejoin="round"/>
<path d="M78.8037 49.297C78.7704 49.4092 78.7358 49.52 78.7012 49.6309" stroke="white" stroke-width="0.692556" stroke-linecap="round" stroke-linejoin="round"/>
<path d="M77.6658 52.2902C74.1206 59.9001 66.4029 65.176 57.453 65.176C47.9817 65.176 39.8913 59.2685 36.6641 50.9362" stroke="white" stroke-width="0.692556" stroke-linecap="round" stroke-linejoin="round" stroke-dasharray="0.71 2.85"/>
<path d="M36.1926 49.5935C36.1579 49.4826 36.1233 49.3718 36.0907 49.2603C36.0907 49.2603 36.0651 49.3829 36.0215 49.5969" stroke="white" stroke-width="0.692556" stroke-linecap="round" stroke-linejoin="round"/>
<path d="M35.5313 52.3347C35.3367 53.5779 35.167 54.9519 35.167 55.9506C35.167 68.2581 45.1439 78.2366 57.4526 78.2366C69.7605 78.2366 79.7381 68.2588 79.7381 55.9506C79.7381 54.2275 79.5941 52.5813 79.2513 50.9877" stroke="white" stroke-width="0.692556" stroke-linecap="round" stroke-linejoin="round" stroke-dasharray="0.7 2.78"/>
<path d="M78.9078 49.6333C78.8752 49.5239 78.842 49.4131 78.8066 49.3029" stroke="white" stroke-width="0.692556" stroke-linecap="round" stroke-linejoin="round"/>
</svg>
