<svg width="260" height="128" viewBox="0 0 260 128" fill="none" xmlns="http://www.w3.org/2000/svg">
<path d="M106.716 74.8258C106.843 74.6834 107.001 74.8099 106.874 74.9365C105.45 76.5185 103.742 77.7367 101.859 78.3537C101.748 78.4961 101.622 78.6227 101.464 78.7018C101.211 78.8125 100.989 78.765 100.831 78.6543C100.657 78.4803 100.831 78.2746 101.052 78.1955C101.147 78.1639 101.464 78.0689 101.622 78.0215C102.065 77.3887 102.524 76.0439 102.539 75.2213C102.539 74.6676 102.318 74.6043 101.764 75.2371C100.246 76.9932 98.2838 81.7393 97.6035 83.0998C97.2238 83.8434 96.8758 83.5744 96.9391 82.8941C97.1131 81.3912 98.9799 76.2021 99.8184 74.7467C100.008 74.4303 100.435 74.541 100.261 74.8416C99.3279 76.4236 97.3978 81.5969 97.3346 82.9258C98.2521 81.059 100.008 76.6609 101.432 75.0156C102.286 74.0348 103.062 74.0506 103.046 75.0631C103.03 75.8383 102.65 77.0248 102.207 77.8475C103.868 77.2621 105.387 76.1705 106.716 74.8258ZM112.364 74.8258C112.49 74.6992 112.649 74.8099 112.522 74.9365C111.826 75.7117 111.082 76.5344 110.165 77.2621C108.282 78.7334 106.479 78.8283 106.843 76.8982C106.969 76.3129 107.238 75.6959 107.57 75.1422C107.444 75.158 107.333 75.1738 107.175 75.1896C106.289 75.2529 106.21 74.7783 106.843 74.0189C107.08 73.75 107.491 73.9082 107.206 74.2088C106.874 74.5885 106.827 74.7625 107.317 74.7308C107.539 74.715 107.76 74.6676 107.918 74.6359C108.251 74.5885 108.33 74.7308 108.077 75.0631C107.634 75.7434 107.38 76.3603 107.286 76.835C107.017 78.3221 108.488 78.0848 109.975 76.9932C110.798 76.3762 111.636 75.5535 112.364 74.8258ZM117.901 74.8099C118.043 74.6992 118.17 74.8258 118.043 74.9523C116.604 76.3287 115.401 77.0564 113.709 77.1988C112.649 78.7967 110.956 78.6701 111.162 77.0723C111.209 76.7559 111.32 76.4236 111.478 76.1072C111.525 74.2404 114.895 73.0381 114.278 75.8699C114.199 76.1547 114.104 76.4394 113.962 76.7242C115.512 76.6135 116.556 75.9332 117.901 74.8099ZM113.898 75.9174C114.104 74.8574 113.519 74.4777 112.902 74.7467C113.06 74.8258 112.981 75.0631 112.775 75.1738C112.459 75.332 112.174 75.6959 112.016 75.9965C112.063 76.6451 112.902 76.74 113.598 76.74C113.74 76.4711 113.835 76.1863 113.898 75.9174ZM111.715 76.7559C111.43 77.974 112.443 78.3379 113.297 77.2146C112.68 77.2305 112.047 77.1355 111.715 76.7559ZM122.331 74.8574C122.457 74.7308 122.615 74.8416 122.489 74.984C121.239 76.3445 119.499 77.4045 117.411 77.8158C118.075 78.5752 117.743 80.4262 117.411 81.6285C116.43 85.0299 114.784 85.0299 115.085 82.4354C115.338 80.5686 116.208 78.0057 117.031 76.0914C117.521 74.9365 118.344 73.2121 119.198 72.1521C120.306 70.7916 121.445 70.839 120.511 72.516C119.958 73.4969 119.008 74.541 117.933 75.1896C117.774 75.4902 117.648 75.8066 117.506 76.123C117.316 76.5818 117.126 77.0406 116.952 77.5152C118.534 77.4519 120.765 76.5502 122.331 74.8574ZM119.562 72.342C119.056 72.9748 118.565 73.8765 118.217 74.5726C119.04 74.0506 119.736 73.2437 120.116 72.4527C120.638 71.3769 120.211 71.5193 119.562 72.342ZM117.031 81.6602C117.379 80.5369 117.743 78.2904 116.762 78.0057C116.272 79.382 115.781 80.9799 115.607 82.3246C115.291 84.7451 116.319 84.049 117.031 81.6602ZM127.251 74.8258C127.377 74.6992 127.536 74.8099 127.409 74.9365C126.476 75.9648 125.384 77.1197 124.166 77.8C122.157 78.9549 120.575 78.243 121.413 76.1072C121.904 74.8574 122.9 74.0031 123.707 73.7816C124.672 73.5127 124.862 74.541 123.865 75.2846C123.28 75.7275 122.552 75.8699 121.919 75.8857C121.033 77.7842 122.362 78.3695 124.055 77.4519C125.178 76.8508 126.317 75.7434 127.251 74.8258ZM123.675 74.1771C123.28 74.2879 122.647 74.715 122.188 75.4111C122.647 75.3953 123.232 75.3004 123.66 74.9682C124.182 74.5885 124.213 74.0506 123.675 74.1771ZM131.079 75.0314C131.19 74.8574 131.396 74.9207 131.317 75.0631C130.447 76.566 128.691 78.1639 127.093 78.2113C126.539 80.1889 124.213 79.4611 125.099 77.1039C125.194 76.8191 125.574 76.7559 125.606 76.9932C125.637 77.3887 126.333 77.7051 126.745 77.8C126.887 76.5502 126.713 74.715 127.789 74.2404C128.058 74.1139 128.263 74.4303 127.836 74.6834C127.298 74.984 127.377 76.8191 127.188 77.8633C128.532 77.8949 130.225 76.392 131.079 75.0314ZM125.226 77.531C124.973 78.9865 126.381 79.6352 126.681 78.1955C126.112 78.148 125.511 77.9107 125.226 77.531ZM135.303 74.9049C135.398 74.7308 135.604 74.7783 135.525 74.9207C134.671 76.4236 132.741 78.1639 131.143 78.2113C130.605 80.1889 128.263 79.4611 129.149 77.1039C129.26 76.8191 129.624 76.7559 129.656 76.9932C129.687 77.3887 130.383 77.7051 130.795 77.8C130.937 76.5502 130.51 75.0789 131.586 74.6043C131.87 74.4777 132.06 74.7783 131.633 75.0314C131.095 75.332 131.427 76.8191 131.238 77.8633C132.598 77.8949 134.433 76.2496 135.303 74.9049ZM129.276 77.531C129.023 78.9865 130.431 79.6352 130.731 78.1955C130.178 78.148 129.576 77.9107 129.276 77.531ZM140.255 74.8258C140.382 74.6992 140.54 74.8099 140.413 74.9365C139.48 75.9648 138.388 77.1197 137.17 77.8C135.161 78.9549 133.579 78.243 134.417 76.1072C134.908 74.8574 135.905 74.0031 136.711 73.7816C137.676 73.5127 137.866 74.541 136.87 75.2846C136.284 75.7275 135.557 75.8699 134.924 75.8857C134.038 77.7842 135.367 78.3695 137.059 77.4519C138.183 76.8508 139.322 75.7434 140.255 74.8258ZM136.68 74.1771C136.284 74.2879 135.651 74.715 135.193 75.4111C135.651 75.3953 136.237 75.3004 136.664 74.9682C137.186 74.5885 137.218 74.0506 136.68 74.1771ZM148.181 74.7783C148.229 74.8099 148.229 74.8732 148.197 74.9365C147.058 76.4711 145.27 78.4012 143.657 78.3695C141.679 78.3221 143.166 75.775 143.293 75.158C143.324 74.9998 143.277 75.0156 143.198 75.1105C142.723 75.6959 141.806 78.3695 140.239 78.3695C138.926 78.3695 139.417 76.0598 140.192 74.8099C140.382 74.5094 140.809 74.6201 140.619 74.9365C139.733 76.3287 139.527 77.8633 140.445 77.8791C141.584 77.8949 142.438 75.5535 143.055 74.8732C143.356 74.5726 143.641 74.6043 143.625 74.9682C143.577 75.7275 142.375 77.8791 143.91 77.8791C145.302 77.8949 147.01 75.9965 148.007 74.8416C148.055 74.7783 148.134 74.7467 148.181 74.7783ZM153.718 74.8258C153.845 74.6992 154.003 74.8099 153.877 74.9365C153.18 75.7117 152.437 76.5344 151.519 77.2621C149.637 78.7334 147.833 78.8283 148.197 76.8982C148.324 76.3129 148.593 75.6959 148.925 75.1422C148.798 75.158 148.687 75.1738 148.529 75.1896C147.643 75.2529 147.564 74.7783 148.197 74.0189C148.434 73.75 148.846 73.9082 148.561 74.2088C148.229 74.5885 148.181 74.7625 148.672 74.7308C148.893 74.715 149.115 74.6676 149.273 74.6359C149.605 74.5885 149.684 74.7308 149.431 75.0631C148.988 75.7434 148.735 76.3603 148.64 76.835C148.371 78.3221 149.842 78.0848 151.329 76.9932C152.152 76.3762 152.991 75.5535 153.718 74.8258ZM165.046 74.7783C165.156 74.6359 165.33 74.7308 165.236 74.8732C164.587 75.7434 163.812 76.74 162.989 77.4678C161.328 78.9232 159.698 78.6385 159.983 76.218C159.714 76.6926 159.382 77.1988 159.018 77.6418C158.101 78.6859 157.404 78.4803 157.373 77.6734C157.325 76.218 159.097 72.6742 160.236 74.2562C160.394 74.4777 159.952 74.8258 159.793 74.6201C158.986 73.5127 157.784 76.392 157.879 77.4836C157.911 78.0531 158.227 77.9582 158.686 77.4361C159.255 76.8191 159.967 75.6642 160.126 75.4111C160.569 73.5443 161.85 70.7599 163.353 69.2095C164.508 68.0072 165.758 67.8806 164.903 69.874C163.938 72.0572 161.676 74.4619 160.663 75.1896C159.967 78.0215 161.233 78.4803 162.783 77.2305C163.574 76.5818 164.429 75.5693 165.046 74.7783ZM163.622 69.3994C162.404 70.7125 161.328 73.0064 160.853 74.541C162.546 73.1646 163.954 71.282 164.571 69.8424C165.188 68.3711 164.539 68.4343 163.622 69.3994ZM169.966 74.8258C170.092 74.6992 170.251 74.8099 170.124 74.9365C169.191 75.9648 168.099 77.1197 166.881 77.8C164.872 78.9549 163.29 78.243 164.128 76.1072C164.619 74.8574 165.615 74.0031 166.422 73.7816C167.387 73.5127 167.577 74.541 166.58 75.2846C165.995 75.7275 165.267 75.8699 164.634 75.8857C163.748 77.7842 165.077 78.3695 166.77 77.4519C167.893 76.8508 169.032 75.7434 169.966 74.8258ZM166.39 74.1771C165.995 74.2879 165.362 74.715 164.903 75.4111C165.362 75.3953 165.947 75.3004 166.375 74.9682C166.897 74.5885 166.928 74.0506 166.39 74.1771ZM181.451 74.8574C181.673 74.7467 181.705 74.9523 181.546 75.0473C180.186 75.8066 178.873 76.6609 177.654 77.6734C177.18 79.2396 176.531 80.885 175.724 82.5777C172.086 90.1715 168.589 84.7293 177.322 77.5785C177.528 76.9299 177.876 75.775 177.86 75.1738C177.844 74.9682 177.781 74.8574 177.607 75.0631C177.101 75.6959 176.294 78.3379 174.823 78.3379C173.32 78.3379 173.873 76.1072 174.696 74.8099C174.886 74.5094 175.313 74.6201 175.123 74.9365C174.142 76.4869 174.142 77.9424 174.965 77.9424C176.072 77.9424 176.879 75.506 177.465 74.8732C177.734 74.5885 178.129 74.541 178.177 75.0156C178.208 75.5693 177.955 76.6135 177.781 77.2146C178.746 76.4711 179.822 75.7275 181.451 74.8574ZM175.297 82.5303C176.041 81.0273 176.705 79.3979 177.148 78.1006C170.124 84.3022 172.07 89.0641 175.297 82.5303ZM186.973 74.8099C187.115 74.6992 187.242 74.8258 187.115 74.9523C185.675 76.3287 184.473 77.0564 182.78 77.1988C181.72 78.7967 180.028 78.6701 180.233 77.0723C180.281 76.7559 180.391 76.4236 180.55 76.1072C180.597 74.2404 183.967 73.0381 183.35 75.8699C183.271 76.1547 183.176 76.4394 183.033 76.7242C184.584 76.6135 185.628 75.9332 186.973 74.8099ZM182.97 75.9174C183.176 74.8574 182.59 74.4777 181.973 74.7467C182.132 74.8258 182.053 75.0631 181.847 75.1738C181.53 75.332 181.246 75.6959 181.088 75.9965C181.135 76.6451 181.973 76.74 182.67 76.74C182.812 76.4711 182.907 76.1863 182.97 75.9174ZM180.787 76.7559C180.502 77.974 181.515 78.3379 182.369 77.2146C181.752 77.2305 181.119 77.1355 180.787 76.7559ZM192.51 74.8574C192.668 74.7783 192.747 74.9523 192.573 75.0473C191.149 75.8383 189.805 76.6768 188.523 77.6893C187.954 79.382 186.64 82.6252 185.596 84.2547C182.432 89.1432 180.091 83.9699 188.207 77.5785C188.444 76.9615 188.871 75.7117 188.887 75.1264C188.903 74.8258 188.839 74.9207 188.745 75.0473C188.397 75.506 187.859 76.6768 187.257 77.5152C186.403 78.6701 185.675 78.5436 185.628 77.7367C185.596 76.3762 187.321 72.9431 188.571 74.0031C188.776 74.1771 188.365 74.5726 188.159 74.4144C187.337 73.7183 186.055 76.4711 186.134 77.5469C186.166 78.0848 186.482 77.8949 186.894 77.357C187.447 76.6609 188.096 75.4269 188.539 74.9365C188.839 74.5726 189.14 74.5568 189.172 75.0314C189.172 75.5693 188.871 76.6293 188.681 77.2146C190.279 76.0281 191.466 75.4111 192.51 74.8574ZM185.185 84.1123C186.15 82.6252 187.431 79.651 188.017 78.1164C181.578 83.5744 182.543 88.1623 185.185 84.1123ZM198.949 74.8258C199.075 74.6992 199.233 74.7941 199.123 74.9365C198.348 75.9016 197.288 77.0406 196.243 77.7209C194.709 78.7334 193.301 78.591 193.744 76.9299C193.902 76.3129 194.218 75.6642 194.377 75.2687C194.487 74.9682 194.408 74.8099 194.139 75.2371C193.918 75.5693 193.538 76.2812 193.238 76.7875C192.035 78.7967 190.912 78.6859 191.039 77.5469C191.228 76.2496 192.779 73.4969 193.696 74.715C193.855 74.9207 193.396 75.2846 193.238 75.0789C192.668 74.3195 191.624 76.4711 191.545 77.4361C191.466 78.3695 192.209 77.6893 192.889 76.6926C193.269 76.1072 193.554 75.601 193.886 75.1422C194.424 74.4619 194.851 74.541 194.677 75.2371C194.551 75.7434 194.298 76.2971 194.171 76.8666C193.918 78.148 194.962 78.1006 196.085 77.3887C197.256 76.6609 198.268 75.5535 198.949 74.8258Z" fill="white"/>
<path d="M106.305 65.0434C106.29 65.0434 106.253 65.0434 106.195 65.0434C106.137 65.0434 105.911 65.1892 105.517 65.4808L100.487 52.315L99.4373 63.7749C99.4082 64.0082 99.5175 64.205 99.7654 64.3654C100.013 64.5258 100.356 64.606 100.793 64.606H101.712V65.2621H96.463V64.606H97.1628C98.0085 64.606 98.4605 64.2852 98.5188 63.6437L99.6123 51.5714C99.6414 51.2944 99.5394 51.0684 99.3061 50.8935C99.0874 50.7039 98.7375 50.6091 98.2563 50.6091H97.5565V49.953H101.668L106.348 62.2878L111.072 49.953H115.009V50.5654H114.134C113.434 50.5654 113.084 50.8351 113.084 51.3746C113.084 51.4183 113.084 51.4694 113.084 51.5277L114.09 63.6437C114.119 63.979 114.2 64.2269 114.331 64.3873C114.477 64.5331 114.732 64.606 115.096 64.606H115.971V65.2621H110.372V64.606H111.116C111.524 64.606 111.801 64.5404 111.947 64.4092C112.093 64.2779 112.166 64.1394 112.166 63.9936C112.166 63.8332 112.166 63.7166 112.166 63.6437L111.203 52.1838L106.305 65.0434ZM123.838 65.6995C121.929 65.6995 120.332 64.9632 119.049 63.4906C117.78 62.018 117.146 60.3195 117.146 58.3949C117.146 57.1993 117.409 56.0475 117.934 54.9394C118.458 53.8313 119.129 52.8909 119.946 52.1182C120.777 51.3454 121.688 50.7258 122.679 50.2592C123.685 49.7927 124.655 49.5594 125.588 49.5594C127.484 49.5594 129.073 50.2957 130.356 51.7683C131.639 53.2408 132.28 54.9394 132.28 56.864C132.28 58.2928 131.894 59.6925 131.121 61.063C130.348 62.419 129.299 63.5344 127.972 64.4092C126.66 65.2694 125.282 65.6995 123.838 65.6995ZM125.194 64.0374C126.784 64.0374 128.118 63.4542 129.197 62.2878C130.29 61.1214 130.837 59.6779 130.837 57.9575C130.837 56.237 130.203 54.6916 128.934 53.321C127.68 51.9505 126.157 51.2652 124.363 51.2652C122.832 51.2652 121.484 51.8193 120.317 52.9274C119.166 54.0209 118.59 55.3331 118.59 56.864C118.59 58.8469 119.195 60.5382 120.405 61.9378C121.63 63.3375 123.226 64.0374 125.194 64.0374ZM146.664 65.612L136.997 52.6649V63.6437C136.997 64.2852 137.449 64.606 138.353 64.606H139.184V65.2621H133.935V64.606H134.635C135.539 64.606 135.991 64.2852 135.991 63.6437V51.5714C135.991 50.9299 135.539 50.6091 134.635 50.6091H133.935V49.953H137.391L146.401 62.0691V51.5714C146.401 50.9299 145.964 50.6091 145.089 50.6091H144.345V49.953H149.594V50.6091H148.763C147.859 50.6091 147.407 50.9299 147.407 51.5714V65.1746C147.247 65.1746 147.072 65.2402 146.882 65.3714C146.707 65.5172 146.635 65.5974 146.664 65.612ZM151.166 64.2123L151.472 61.3692L152.215 61.413C152.215 62.2149 152.689 62.8637 153.637 63.3594C154.599 63.8405 155.685 64.0811 156.896 64.0811C158.12 64.0811 159.039 63.8989 159.651 63.5344C160.264 63.1553 160.57 62.6814 160.57 62.1128C160.57 61.1505 160.059 60.2903 159.039 59.5321C158.616 59.2259 158.171 58.9562 157.705 58.7229C156.64 58.1689 155.97 57.819 155.693 57.6732C155.43 57.5128 155.131 57.3524 154.796 57.192C154.461 57.0317 154.147 56.864 153.856 56.689C153.579 56.4995 153.28 56.2735 152.959 56.0111C152.23 55.4278 151.865 54.779 151.865 54.0646C151.865 53.3356 151.989 52.7014 152.237 52.1619C152.5 51.6225 152.82 51.1996 153.2 50.8935C153.593 50.5873 154.052 50.3321 154.577 50.128C155.467 49.8072 156.458 49.6469 157.552 49.6469C158.66 49.6469 159.724 49.9239 160.745 50.4779L160.482 53.0149H159.739C159.739 51.6443 158.587 50.9591 156.283 50.9591C155.219 50.9591 154.417 51.1267 153.878 51.4621C153.353 51.7974 153.09 52.2567 153.09 52.8399C153.09 53.773 154.607 54.8957 157.639 56.2079C159.637 57.0681 160.912 58.0231 161.466 59.0729C161.743 59.5977 161.882 60.1737 161.882 60.8006C161.882 62.3169 161.27 63.4906 160.045 64.3217C158.835 65.1527 157.369 65.5683 155.649 65.5683C153.929 65.5683 152.434 65.1163 151.166 64.2123ZM175.131 65.2621H163.409V64.6497H164.152C164.575 64.6497 164.852 64.5695 164.983 64.4092C165.129 64.2488 165.202 63.9936 165.202 63.6437V51.5714C165.202 51.2798 165.107 51.0393 164.918 50.8497C164.743 50.6602 164.488 50.5654 164.152 50.5654H163.409V49.953H174.956L175.131 52.9711L174.519 53.1023C174.519 52.5775 174.307 52.0744 173.884 51.5933C173.462 51.1122 172.871 50.8716 172.113 50.8716H168.133C167.695 50.8716 167.411 50.9591 167.28 51.134C167.148 51.2944 167.083 51.5277 167.083 51.8339V56.8202H171.457C171.675 56.8202 171.843 56.813 171.96 56.7984C172.076 56.7692 172.179 56.689 172.266 56.5578C172.368 56.4266 172.419 56.237 172.419 55.9892V54.9832H173.075V59.5321H172.419V58.6136C172.419 58.2491 172.339 58.0158 172.179 57.9137C172.018 57.7971 171.778 57.7388 171.457 57.7388H167.083V63.3813C167.083 63.6874 167.148 63.928 167.28 64.103C167.411 64.2634 167.695 64.3435 168.133 64.3435H172.288C173.061 64.3435 173.739 64.0957 174.322 63.6C174.92 63.1042 175.233 62.6231 175.262 62.1565L175.875 62.244L175.131 65.2621ZM197.332 65.2621H191.733V64.6497H192.433C193.074 64.6497 193.395 64.4456 193.395 64.0374C193.395 63.979 193.322 63.7312 193.176 63.2938L191.689 59.4009H186.178L184.734 63.1188C184.734 63.148 184.683 63.3302 184.581 63.6656C184.479 63.9863 184.428 64.2123 184.428 64.3435C184.428 64.4602 184.508 64.5404 184.669 64.5841C184.829 64.6279 185.172 64.6497 185.697 64.6497H186.047V65.2621H181.76V64.6497H182.066C182.547 64.6497 182.897 64.5695 183.116 64.4092C183.335 64.2342 183.524 63.9499 183.685 63.5562L188.496 51.0028C188.569 50.9882 188.7 50.8862 188.89 50.6966C189.079 50.4925 189.254 50.2884 189.415 50.0843C189.575 49.8656 189.655 49.7416 189.655 49.7125C189.655 49.6833 189.648 49.6614 189.633 49.6469L189.94 49.5594L195.32 63.6437C195.48 63.979 195.64 64.2342 195.801 64.4092C195.976 64.5695 196.224 64.6497 196.544 64.6497H197.332V65.2621ZM191.295 58.4824L188.934 52.2275L186.528 58.4824H191.295ZM205.83 65.2621H200.275V64.6497H200.975C201.413 64.6497 201.704 64.5622 201.85 64.3873C201.996 64.2123 202.069 63.979 202.069 63.6874V58.9198L198.832 52.4462C198.234 51.1923 197.461 50.5654 196.514 50.5654H196.033V49.953H200.975V50.5654H200.713C200.479 50.5654 200.363 50.6383 200.363 50.7841C200.363 50.9299 200.45 51.1632 200.625 51.4839L203.381 57.3451L206.18 51.4839C206.355 51.134 206.443 50.9153 206.443 50.8278C206.443 50.6529 206.224 50.5654 205.787 50.5654H205.218V49.953H209.636V50.5654H209.286C208.192 50.5654 207.405 51.0757 206.924 52.0963L203.95 58.045V63.6874C203.95 63.979 204.022 64.2123 204.168 64.3873C204.314 64.5622 204.606 64.6497 205.043 64.6497H205.83V65.2621ZM223.324 65.2621H217.725V64.6497H218.425C219.066 64.6497 219.387 64.4456 219.387 64.0374C219.387 63.979 219.314 63.7312 219.168 63.2938L217.681 59.4009H212.17L210.727 63.1188C210.727 63.148 210.675 63.3302 210.573 63.6656C210.471 63.9863 210.42 64.2123 210.42 64.3435C210.42 64.4602 210.501 64.5404 210.661 64.5841C210.821 64.6279 211.164 64.6497 211.689 64.6497H212.039V65.2621H207.752V64.6497H208.058C208.54 64.6497 208.889 64.5695 209.108 64.4092C209.327 64.2342 209.516 63.9499 209.677 63.5562L214.488 51.0028C214.561 50.9882 214.692 50.8862 214.882 50.6966C215.071 50.4925 215.246 50.2884 215.407 50.0843C215.567 49.8656 215.647 49.7416 215.647 49.7125C215.647 49.6833 215.64 49.6614 215.625 49.6469L215.932 49.5594L221.312 63.6437C221.472 63.979 221.632 64.2342 221.793 64.4092C221.968 64.5695 222.216 64.6497 222.536 64.6497H223.324V65.2621ZM217.288 58.4824L214.926 52.2275L212.52 58.4824H217.288ZM236.149 65.2621H224.427V64.606H225.171C225.608 64.606 225.892 64.5258 226.023 64.3654C226.155 64.205 226.22 63.9645 226.22 63.6437V51.5714C226.22 51.2507 226.155 51.0101 226.023 50.8497C225.892 50.6893 225.608 50.6091 225.171 50.6091H224.427V49.953H229.982V50.6091H229.151C228.713 50.6091 228.429 50.6893 228.298 50.8497C228.167 51.0101 228.101 51.2507 228.101 51.5714V63.3375C228.101 63.6583 228.167 63.9061 228.298 64.0811C228.429 64.2561 228.713 64.3435 229.151 64.3435H233.306C234.079 64.3435 234.757 64.0957 235.34 63.6C235.938 63.0897 236.237 62.5939 236.237 62.1128L236.893 62.244L236.149 65.2621ZM252.968 65.2621H247.369V64.6497H248.069C248.71 64.6497 249.031 64.4456 249.031 64.0374C249.031 63.979 248.958 63.7312 248.813 63.2938L247.325 59.4009H241.814L240.371 63.1188C240.371 63.148 240.32 63.3302 240.218 63.6656C240.116 63.9863 240.065 64.2123 240.065 64.3435C240.065 64.4602 240.145 64.5404 240.305 64.5841C240.465 64.6279 240.808 64.6497 241.333 64.6497H241.683V65.2621H237.396V64.6497H237.703C238.184 64.6497 238.534 64.5695 238.752 64.4092C238.971 64.2342 239.161 63.9499 239.321 63.5562L244.132 51.0028C244.205 50.9882 244.336 50.8862 244.526 50.6966C244.716 50.4925 244.891 50.2884 245.051 50.0843C245.211 49.8656 245.291 49.7416 245.291 49.7125C245.291 49.6833 245.284 49.6614 245.27 49.6469L245.576 49.5594L250.956 63.6437C251.116 63.979 251.277 64.2342 251.437 64.4092C251.612 64.5695 251.86 64.6497 252.181 64.6497H252.968V65.2621ZM246.932 58.4824L244.57 52.2275L242.164 58.4824H246.932Z" fill="white"/>
<path d="M32.6299 63.8301L1.00003 63.8301" stroke="white" stroke-width="0.810002" stroke-miterlimit="10" stroke-linecap="round" stroke-linejoin="round"/>
<path d="M63.8281 95.0297L63.8281 126.66" stroke="white" stroke-width="0.810002" stroke-miterlimit="10" stroke-linecap="round" stroke-linejoin="round"/>
<path d="M63.8281 1L63.8281 32.6305" stroke="white" stroke-width="0.810002" stroke-miterlimit="10" stroke-linecap="round" stroke-linejoin="round"/>
<path d="M41.7666 85.8912L25.9707 101.687" stroke="white" stroke-width="0.810002" stroke-miterlimit="10" stroke-linecap="round" stroke-linejoin="round"/>
<path d="M25.9707 25.9731L41.7666 41.7689" stroke="white" stroke-width="0.810002" stroke-miterlimit="10" stroke-linecap="round" stroke-linejoin="round"/>
<path d="M34.8838 75.4771L14.1607 83.8152" stroke="white" stroke-width="0.810002" stroke-miterlimit="10" stroke-linecap="round" stroke-linejoin="round"/>
<path d="M43.8407 14.1625L52.1797 34.8855" stroke="white" stroke-width="0.810002" stroke-miterlimit="10" stroke-linecap="round" stroke-linejoin="round"/>
<path d="M51.5957 92.5324L42.8387 113.081" stroke="white" stroke-width="0.810002" stroke-miterlimit="10" stroke-linecap="round" stroke-linejoin="round"/>
<path d="M14.5754 42.8422L35.126 51.5983" stroke="white" stroke-width="0.810002" stroke-miterlimit="10" stroke-linecap="round" stroke-linejoin="round"/>
<path d="M45.8154 89.3046L39.0616 98.8537" stroke="white" stroke-width="0.810002" stroke-miterlimit="10" stroke-linecap="round" stroke-linejoin="round"/>
<path d="M28.8034 39.0643L38.3525 45.8165" stroke="white" stroke-width="0.810002" stroke-miterlimit="10" stroke-linecap="round" stroke-linejoin="round"/>
<path d="M57.4902 94.3792L55.1161 105.831" stroke="white" stroke-width="0.810002" stroke-miterlimit="10" stroke-linecap="round" stroke-linejoin="round"/>
<path d="M72.5391 21.8284L70.1633 33.2801" stroke="white" stroke-width="0.810002" stroke-miterlimit="10" stroke-linecap="round" stroke-linejoin="round"/>
<path d="M21.8252 55.1185L33.2754 57.4935" stroke="white" stroke-width="0.810002" stroke-miterlimit="10" stroke-linecap="round" stroke-linejoin="round"/>
<path d="M69.1022 94.5793L71.0811 106.108" stroke="white" stroke-width="0.810002" stroke-miterlimit="10" stroke-linecap="round" stroke-linejoin="round"/>
<path d="M56.5737 21.5521L58.5518 33.0784" stroke="white" stroke-width="0.810002" stroke-miterlimit="10" stroke-linecap="round" stroke-linejoin="round"/>
<path d="M21.5496 71.0828L33.0752 69.1056" stroke="white" stroke-width="0.810002" stroke-miterlimit="10" stroke-linecap="round" stroke-linejoin="round"/>
<path d="M37.7041 80.8895L27.9112 87.2844" stroke="white" stroke-width="0.810002" stroke-miterlimit="10" stroke-linecap="round" stroke-linejoin="round"/>
<path d="M40.3728 27.9147L46.7686 37.7076" stroke="white" stroke-width="0.810002" stroke-miterlimit="10" stroke-linecap="round" stroke-linejoin="round"/>
<path d="M54.6672 40.1064C54.7918 40.1433 54.915 40.1818 55.0381 40.2203" stroke="white" stroke-width="0.769506" stroke-linecap="round" stroke-linejoin="round"/>
<path d="M57.992 41.3714C66.4474 45.3105 72.3096 53.8858 72.3096 63.8301C72.3096 74.3538 65.7456 83.3431 56.4876 86.9289" stroke="white" stroke-width="0.769506" stroke-linecap="round" stroke-linejoin="round" stroke-dasharray="0.79 3.17"/>
<path d="M54.9961 87.4522C54.873 87.4907 54.7499 87.5291 54.626 87.5653C54.626 87.5653 54.7622 87.5938 55 87.6423" stroke="white" stroke-width="0.769506" stroke-linecap="round" stroke-linejoin="round"/>
<path d="M58.0415 88.187C59.4228 88.4033 60.9495 88.5918 62.0591 88.5918C75.7341 88.5918 86.8213 77.5064 86.8213 63.8301C86.8213 50.1545 75.7349 39.0683 62.0591 39.0683C60.1446 39.0683 58.3155 39.2284 56.5448 39.6093" stroke="white" stroke-width="0.769506" stroke-linecap="round" stroke-linejoin="round" stroke-dasharray="0.77 3.09"/>
<path d="M55.04 39.991C54.9185 40.0271 54.7953 40.0641 54.673 40.1033" stroke="white" stroke-width="0.769506" stroke-linecap="round" stroke-linejoin="round"/>
</svg>
