<svg width="27" height="28" viewBox="0 0 27 28" fill="none" xmlns="http://www.w3.org/2000/svg">
<path fill-rule="evenodd" clip-rule="evenodd" d="M23.066 4.06881C20.5282 1.4463 17.153 0.00133054 13.5567 0C6.14633 0 0.115385 6.22363 0.112806 13.8736C0.111517 16.3191 0.730985 18.7061 1.90739 20.8097L0 28L7.12677 26.0707C9.09023 27.1764 11.3012 27.7585 13.5509 27.7592H13.5567C20.9658 27.7592 26.9975 21.5349 27 13.8849C27.0013 10.1774 25.6044 6.69198 23.066 4.06947V4.06881ZM13.5567 25.4161H13.5522C11.5475 25.4155 9.5808 24.8592 7.86488 23.8088L7.45682 23.5587L3.22755 24.7036L4.35626 20.4478L4.09067 20.0114C2.97228 18.1753 2.38118 16.053 2.38247 13.8743C2.38505 7.51626 7.39751 2.34309 13.5613 2.34309C16.5458 2.34442 19.3511 3.54524 21.4609 5.72534C23.5707 7.90478 24.7316 10.8027 24.7304 13.8836C24.7277 20.2423 19.7153 25.4155 13.5567 25.4155V25.4161ZM19.6856 16.7795C19.3498 16.6059 17.6984 15.7676 17.3902 15.6519C17.0821 15.5361 16.8584 15.4783 16.6347 15.8255C16.4111 16.1728 15.7671 16.9538 15.5711 17.1847C15.3752 17.4162 15.1792 17.4448 14.8433 17.2711C14.5076 17.0975 13.4252 16.7316 12.1418 15.5507C11.1434 14.6313 10.469 13.4964 10.2731 13.1491C10.0772 12.8019 10.2525 12.6142 10.4201 12.4419C10.5709 12.2863 10.7559 12.0368 10.9241 11.8345C11.0924 11.6323 11.1479 11.4873 11.26 11.2564C11.3722 11.0249 11.3161 10.8227 11.2323 10.649C11.1485 10.4754 10.4768 8.76892 10.1964 8.07507C9.9237 7.39917 9.64657 7.49098 9.44093 7.47967C9.24495 7.46968 9.0213 7.46769 8.79698 7.46769C8.57265 7.46769 8.20905 7.55418 7.90095 7.90145C7.59285 8.24869 6.72518 9.0876 6.72518 10.7934C6.72518 12.4991 7.9287 14.1484 8.09693 14.3799C8.26515 14.6114 10.4658 18.1127 13.8352 19.6149C14.6365 19.9721 15.2624 20.1857 15.7503 20.3454C16.5548 20.6095 17.2871 20.5723 17.8659 20.4831C18.5112 20.3833 19.8533 19.6442 20.133 18.8345C20.4128 18.0249 20.4128 17.3303 20.329 17.186C20.2452 17.0416 20.0209 16.9545 19.685 16.7808L19.6856 16.7795Z" fill="#F8E8DD"/>
</svg>
