<svg width="54" height="57" viewBox="0 0 54 57" fill="none" xmlns="http://www.w3.org/2000/svg">
<path fill-rule="evenodd" clip-rule="evenodd" d="M46.1319 8.45997C41.0564 3.21496 34.3059 0.325018 27.1134 0.322357C12.2927 0.322357 0.230769 12.7696 0.225612 28.0696C0.223034 32.9606 1.46197 37.7346 3.81479 41.9418L0 56.3224L14.2535 52.4637C18.1805 54.6752 22.6025 55.8394 27.1019 55.8407H27.1134C41.9316 55.8407 53.9949 43.3921 54 28.0922C54.0026 20.6771 51.2088 13.7063 46.1319 8.4613V8.45997ZM27.1134 51.1545H27.1044C23.0949 51.1533 19.1616 50.0408 15.7298 47.9399L14.9136 47.4397L6.4551 49.7295L8.71251 41.2179L8.18135 40.3451C5.94456 36.6729 4.76235 32.4284 4.76493 28.0709C4.77009 15.3549 14.795 5.00853 27.1226 5.00853C33.0915 5.0112 38.7023 7.41284 42.9217 11.773C47.1414 16.1319 49.4633 21.9278 49.4607 28.0895C49.4555 40.8069 39.4307 51.1533 27.1134 51.1533V51.1545ZM39.3713 33.8814C38.6996 33.5342 35.3967 31.8576 34.7804 31.6261C34.1642 31.3945 33.7169 31.2789 33.2694 31.9734C32.8221 32.668 31.5342 34.23 31.1423 34.6917C30.7503 35.1547 30.3584 35.212 29.6867 34.8646C29.0151 34.5173 26.8505 33.7856 24.2837 31.4238C22.2867 29.585 20.9381 27.3152 20.5463 26.6205C20.1543 25.9261 20.505 25.5508 20.8401 25.2062C21.1418 24.8949 21.5118 24.3959 21.8483 23.9914C22.1849 23.5869 22.2957 23.2969 22.52 22.8352C22.7444 22.3721 22.6322 21.9678 22.4646 21.6204C22.2969 21.2731 20.9536 17.8602 20.3928 16.4725C19.8474 15.1207 19.2931 15.3043 18.8819 15.2817C18.4899 15.2617 18.0426 15.2577 17.594 15.2577C17.1453 15.2577 16.4181 15.4307 15.8019 16.1253C15.1857 16.8197 13.4504 18.4976 13.4504 21.9091C13.4504 25.3206 15.8574 28.6191 16.1939 29.0822C16.5303 29.5452 20.9316 36.5478 27.6704 39.5522C29.273 40.2666 30.5247 40.6938 31.5006 41.0131C33.1096 41.5413 34.5741 41.4669 35.7318 41.2885C37.0224 41.089 39.7065 39.6107 40.266 37.9914C40.8255 36.3721 40.8255 34.983 40.658 34.6943C40.4904 34.4056 40.0418 34.2313 39.3701 33.884L39.3713 33.8814Z" fill="#7795A0"/>
</svg>
